<?xml version="1.0" encoding="utf-8"?>
<!-- Svg Vector Icons : http://www.onlinewebfonts.com/icon -->
<!DOCTYPE svg PUBLIC "-//W3C//DTD SVG 1.1//EN" "http://www.w3.org/Graphics/SVG/1.1/DTD/svg11.dtd">
<svg version="1.1" xmlns="http://www.w3.org/2000/svg" xmlns:xlink="http://www.w3.org/1999/xlink" x="0px" y="0px" viewBox="0 0 256 256" enable-background="new 0 0 256 256" xml:space="preserve">
<metadata> Svg Vector Icons : http://www.onlinewebfonts.com/icon </metadata>
<g><g><path fill="#000000" d="M62.4,10L62.4,10h131.3c4.4,0,8.9,4.4,8.9,8.9l0,0v218.3c0,4.4-4.4,8.9-8.9,8.9l0,0H62.4c-4.4,0-8.9-4.4-8.9-8.9l0,0V18.9C53.5,14.4,58,10,62.4,10L62.4,10z M86,43.9c0-3,3-5.9,5.9-5.9c3,0,5.9,3,5.9,5.9v39.8h88.5V27.7H72.7v56.1h14.8V43.9H86z M184.8,94.1H96.3v112.1c0,3-3,5.9-5.9,5.9c-3,0-5.9-3-5.9-5.9V94.1H69.7v134.2h113.6V94.1H184.8z"/></g></g>
</svg>