<?xml version="1.0" encoding="utf-8"?>
<!-- Svg Vector Icons : http://www.onlinewebfonts.com/icon -->
<!DOCTYPE svg PUBLIC "-//W3C//DTD SVG 1.1//EN" "http://www.w3.org/Graphics/SVG/1.1/DTD/svg11.dtd">
<svg version="1.1" xmlns="http://www.w3.org/2000/svg" xmlns:xlink="http://www.w3.org/1999/xlink" x="0px" y="0px" viewBox="0 0 256 256" enable-background="new 0 0 256 256" xml:space="preserve">
<metadata> Svg Vector Icons : http://www.onlinewebfonts.com/icon </metadata>
<g><g><g><path fill="#000000" d="M14.8,53.9c-1.2,0.7-2.8,2.3-3.5,3.5L10,59.6l0.1,64.4l0.2,64.4l1.6,2c2.2,2.6,4.2,3.7,7.6,4.1l2.8,0.3v2.8c0,2.4,0.2,3,1.5,4.3l1.5,1.5h8.6h8.6l1.5-1.5c1.3-1.3,1.5-1.9,1.5-4.4v-2.9H128h82.6v2.9c0,2.5,0.2,3,1.5,4.4l1.5,1.5h8.6h8.6l1.5-1.5c1.3-1.3,1.5-1.9,1.5-4.4v-2.9h1.7c4.2,0,7.8-2.1,9.6-5.7c1-1.9,1-3.4,1-65.7V59.6l-1.3-2.2c-0.8-1.3-2.2-2.8-3.5-3.5l-2.2-1.3h-111h-111L14.8,53.9z M179.3,61.3v3.6H97.2H15.1v-2.1c0-1.6,0.3-2.4,1.5-3.6l1.5-1.5h80.6h80.6V61.3z M239.4,59.2l1.5,1.5v62.4c0,46.5-0.2,62.7-0.6,63.5c-1.3,2.4-0.8,2.4-28.7,2.4h-26.6v-65.7V57.7h26.5h26.5L239.4,59.2z M16.7,123.4c0,47.1-0.1,53.4-0.8,53.4s-0.8-6.3-0.8-53.4c0-47.1,0.1-53.4,0.8-53.4S16.7,76.3,16.7,123.4z M179.3,123.4v53.4h-80h-80v-53.4V70h80h80L179.3,123.4L179.3,123.4z M179.3,185.7v3.3H98.5H17.6l-1.2-1.3c-0.9-1-1.3-2-1.3-3.3v-2h82.1h82.1V185.7z M40.3,196.5v1.8h-6.4h-6.4v-1.8v-1.8h6.4h6.4V196.5z M228.6,196.5v1.8h-6.4h-6.4v-1.8v-1.8h6.4h6.4L228.6,196.5L228.6,196.5z"/><path fill="#000000" d="M188.8,66c-0.7,1-0.8,3-0.8,11.7s0.2,10.7,0.8,11.7l0.8,1.1h23c19,0,23.1-0.1,24-0.7c0.9-0.7,1-1.5,1.1-11.6c0.2-9.2,0.1-11-0.7-12.1l-0.8-1.2h-23.3h-23.3L188.8,66z M209.3,77.7l7.7,7.7h-6.2h-6.1l-2.9-2.8c-2.1-2-3.1-2.8-3.7-2.5c-1.3,0.5-1.1,1.4,0.7,3c0.9,0.8,1.5,1.6,1.5,1.9c0,0.2-1.5,0.4-3.3,0.4h-3.3v-7.7V70h4h4L209.3,77.7z M215,74.6c2.5,2.5,4.9,4.6,5.2,4.6c0.4,0,0.8-0.4,0.9-0.9c0.3-0.6-0.7-1.9-3.4-4.6L214,70h9.1h9.1v7.7v7.7h-5.8h-5.7l-7.7-7.7l-7.7-7.7h2.6C210.3,70,210.4,70.1,215,74.6z"/><path fill="#000000" d="M192.8,97.7c-5.8,3.5-3.2,12.8,3.5,12.8c5.3,0,8.8-6.1,6.1-10.6C200.5,96.8,196,95.7,192.8,97.7z M198,103c0.4,0.7,0.4,1.1-0.3,1.7c-1.5,1.5-3.8-0.5-2.5-2.2C196,101.6,197.2,101.8,198,103z"/><path fill="#000000" d="M209.2,97.7c-5.8,3.5-3.2,12.8,3.5,12.8c5.3,0,8.8-6.1,6.1-10.6C216.9,96.8,212.4,95.7,209.2,97.7z M214.4,103c0.4,0.7,0.4,1.1-0.3,1.7c-1.5,1.5-3.8-0.5-2.5-2.2C212.4,101.6,213.6,101.8,214.4,103z"/><path fill="#000000" d="M225.6,97.7c-5.8,3.5-3.2,12.8,3.5,12.8c5.3,0,8.8-6.1,6.1-10.6C233.3,96.8,228.9,95.7,225.6,97.7z M230.8,103c0.4,0.7,0.4,1.1-0.3,1.7c-1.5,1.5-3.8-0.5-2.5-2.2C228.9,101.6,230,101.8,230.8,103z"/><path fill="#000000" d="M193.3,113.4c-3.6,1.8-4.8,6.6-2.6,10c1.4,2.1,3.1,3,5.6,3c5.3,0,8.6-5.2,6.3-9.9C201,113.2,196.6,111.7,193.3,113.4z M197.9,118.9c0.7,1-0.3,2.5-1.7,2.5c-1.1,0-1.8-1.8-0.9-2.9C196,117.5,197.2,117.7,197.9,118.9z"/><path fill="#000000" d="M209.6,113.5c-3.6,1.8-4.8,6.6-2.5,10c1.4,2.1,3.1,3,5.6,3c5.3,0,8.6-5.2,6.3-9.9C217.4,113.1,213.1,111.7,209.6,113.5z M214,118.5c0.8,0.6,0.9,0.9,0.4,1.7c-0.8,1.4-2.6,1.5-3,0.2c-0.3-1,0.5-2.6,1.2-2.6C212.8,117.7,213.4,118,214,118.5z"/><path fill="#000000" d="M226.1,113.4c-6.3,3.2-4.1,13,2.8,13c5.6,0,8.9-5,6.6-9.9C233.8,113.2,229.5,111.7,226.1,113.4z M230.8,118.9c0.7,1-0.3,2.5-1.7,2.5c-1.1,0-1.8-1.8-0.9-2.9C228.9,117.5,230,117.7,230.8,118.9z"/><path fill="#000000" d="M194.4,129.1c-0.9,0.2-2.3,1.1-3.1,2c-1.3,1.4-1.5,2-1.5,4.6s0.2,3.2,1.5,4.6c4.3,4.5,11.4,2.2,11.9-4C203.7,131.3,199.2,127.6,194.4,129.1z M198,135.2c0.5,1.4-0.1,2.1-1.6,2.1c-1.3,0-2.1-1-1.5-2.3C195.3,133.7,197.6,134,198,135.2z"/><path fill="#000000" d="M210.9,129.1c-2.8,0.8-4.5,3.1-4.8,6.4c-0.2,2.7-0.2,2.9,1.8,4.8c3.5,3.5,8.1,3.1,10.8-0.9C222.1,134.1,217,127.3,210.9,129.1z M214.4,135.2c0.5,1.4-0.1,2.1-1.6,2.1c-1.3,0-2.1-1-1.5-2.3C211.7,133.7,214,134,214.4,135.2z"/><path fill="#000000" d="M227.3,129.1c-2.8,0.8-4.5,3.1-4.8,6.4c-0.2,2.7-0.2,2.9,1.8,4.8c3.5,3.5,8.1,3.1,10.8-0.9C238.6,134.1,233.4,127.3,227.3,129.1z M230.9,135.2c0.5,1.4-0.1,2.1-1.6,2.1c-1.3,0-2.1-1-1.5-2.3C228.1,133.7,230.5,134,230.9,135.2z"/><path fill="#000000" d="M209.2,146c-3.2,1.9-4.2,6.4-2.2,9.6c2.6,4.3,9.5,4.1,11.9-0.5C222.3,148.8,215.3,142.2,209.2,146z M214.4,151.2c0.4,0.7,0.4,1.1-0.3,1.7c-1.5,1.5-3.8-0.5-2.5-2.2C212.4,149.9,213.6,150,214.4,151.2z"/><path fill="#000000" d="M189.6,166.5c-0.9,0.9-1,1.7-1,7.3c0,5.8,0.1,6.5,1.1,7.3c1,0.9,2.2,1,23.4,1h22.3l1-1.2c0.8-1,1-2.1,1-7.3c0-5.4-0.1-6.2-1-7.1c-1-1-1.7-1-23.3-1C191.3,165.5,190.5,165.5,189.6,166.5z M211.6,173.7v3.1h-9h-9v-3.1v-3.1h9h9V173.7z M232.1,173.7v3.1h-9h-9v-3.1v-3.1h9h9V173.7z"/><path fill="#000000" d="M158,79.9c-1.1,0.7-2.5,2.1-3.2,3.2l-1.2,2.1v38.9c0,38.3,0,38.9,1.1,40.8c2.8,5,9.4,6.2,13.6,2.5c3.4-3,3.2-1,3.2-43.5V85.3l-1.1-2.1C168.1,79,162.3,77.5,158,79.9z M165.2,85.2l1.3,1.2v37.8v37.8l-1.3,1.2c-0.7,0.7-1.5,1.3-1.8,1.3c-0.4,0-0.5-12.6-0.5-40.3s0.2-40.3,0.5-40.3C163.7,83.9,164.5,84.4,165.2,85.2z M159.8,124.3c0,25.3-0.2,38.6-0.5,38.1c-0.6-0.8-0.7-74.7-0.2-76.1c0.2-0.5,0.4-0.8,0.5-0.8S159.8,102.9,159.8,124.3z"/></g></g></g>
</svg>